<?xml version="1.0" encoding="UTF-8"?>
<svg width="75px" height="65px" viewBox="0 0 75 65" version="1.1" xmlns="http://www.w3.org/2000/svg" xmlns:xlink="http://www.w3.org/1999/xlink">
    <title>history</title>
    <defs>
        <filter color-interpolation-filters="auto" id="filter-1">
            <feColorMatrix in="SourceGraphic" type="matrix" values="0 0 0 0 1.000000 0 0 0 0 1.000000 0 0 0 0 1.000000 0 0 0 1.000000 0"></feColorMatrix>
        </filter>
    </defs>
    <g id="Page-1" stroke="none" stroke-width="1" fill="none" fill-rule="evenodd">
        <g id="Cart" transform="translate(-865.000000, -275.000000)">
            <g id="cart-items" transform="translate(443.780000, 235.000000)">
                <g id="history" transform="translate(380.000000, 0.000000)" filter="url(#filter-1)">
                    <g transform="translate(41.220000, 40.000000)">
                        <g id="Слой_1" transform="translate(2.000000, 2.000000)"></g>
                        <g id="Слой_29" transform="translate(7.000000, 1.000000)" fill="#000000" fill-rule="nonzero">
                            <g id="Group">
                                <path d="M62,6.2745098 C62,5.77254902 61.75,5.27058824 61.5,4.76862745 C61.25,3.76470588 60.75,3.01176471 60.25,2.25882353 C59.25,1.25490196 58.25,0.501960784 56.75,0.250980392 L57.5,0.250980392 C57.5,0.250980392 57.25,0.250980392 57.25,0.250980392 C57,0.250980392 57,1.95050947e-15 56.75,1.95050947e-15 L13.25,1.95050947e-15 C13.25,1.95050947e-15 13,1.95050947e-15 13,1.95050947e-15 C12.25,0.250980392 11.5,0.501960784 10.75,0.501960784 L11.75,0.501960784 C11.25,0.501960784 10.5,0.752941176 10,1.00392157 C7.25,2.25882353 6,4.26666667 6,7.27843137 C6,22.0862745 6,36.8941176 6,51.9529412 L6,52.454902 L0,52.454902 C0,54.2117647 0,55.9686275 0,57.4745098 C0,57.9764706 0.25,58.4784314 0.5,59.2313725 C1,60.9882353 2,62.2431373 3.75,62.9960784 C4.5,63.2470588 5.5,63.4980392 6.25,63.7490196 C6.75,63.7490196 7.25,63.7490196 7.5,64 L46.5,64 C46.75,64 46.75,64 47,64 L46.5,64 C47.5,63.7490196 48.75,63.4980392 49.5,62.745098 C51.25,61.4901961 52.25,59.4823529 52.25,57.2235294 C52.25,50.9490196 52.25,44.6745098 52.25,38.1490196 C52.25,29.3647059 52.25,20.5803922 52.25,11.7960784 L52.25,11.0431373 L61.75,11.0431373 C61.75,10.5411765 61.75,10.2901961 61.75,9.78823529 C61.75,8.78431373 62,7.52941176 62,6.2745098 Z M49.75,10.2901961 C49.75,15.5607843 49.75,20.8313725 49.75,26.1019608 C49.75,36.3921569 49.75,46.4313725 49.75,56.7215686 C49.75,58.7294118 48.5,60.4862745 46.5,60.7372549 C45.25,60.9882353 44.25,60.9882353 43,60.4862745 C42,59.9843137 41.25,59.2313725 41,58.227451 C40.5,56.7215686 40.5,55.2156863 40.25,53.7098039 C40.25,53.2078431 40.25,52.9568627 40.25,52.454902 L8.5,52.454902 C8.5,52.2039216 8.5,52.2039216 8.5,52.2039216 C8.5,37.145098 8.5,22.0862745 8.5,7.27843137 C8.5,5.01960784 10.25,3.2627451 12.5,3.2627451 C21,3.2627451 29.5,3.2627451 38,3.2627451 C42.25,3.2627451 46.5,3.2627451 50.75,3.2627451 L51.25,3.2627451 C50,5.52156863 49.75,7.78039216 49.75,10.2901961 Z" id="Shape"></path>
                                <path d="M32.5,22.5882353 C35,22.5882353 37.75,22.5882353 40.25,22.5882353 C41.5,22.5882353 42.25,23.3411765 42.5,24.5960784 C42.75,25.6 41.75,26.854902 40.75,26.854902 C40.5,26.854902 40.25,26.854902 40.25,26.854902 C35,26.854902 29.75,26.854902 24.75,26.854902 C23.25,26.854902 22.25,25.8509804 22.5,24.5960784 C22.5,23.5921569 23.5,22.5882353 24.5,22.5882353 C26.25,22.5882353 28.25,22.5882353 30,22.5882353 C30.75,22.5882353 31.75,22.5882353 32.5,22.5882353 Z" id="Path"></path>
                                <path d="M32.5,31.372549 C35,31.372549 37.75,31.372549 40.25,31.372549 C41.5,31.372549 42.25,32.1254902 42.5,33.3803922 C42.75,34.3843137 41.75,35.6392157 40.75,35.6392157 C40.5,35.6392157 40.25,35.6392157 40.25,35.6392157 C35,35.6392157 29.75,35.6392157 24.75,35.6392157 C23.25,35.6392157 22.25,34.6352941 22.5,33.3803922 C22.5,32.3764706 23.5,31.372549 24.5,31.372549 C26.25,31.372549 28.25,31.372549 30,31.372549 C30.75,31.372549 31.75,31.372549 32.5,31.372549 Z" id="Path"></path>
                                <path d="M32.5,18.0705882 C30,18.0705882 27.25,18.0705882 24.75,18.0705882 C23.5,18.0705882 22.5,17.0666667 22.5,15.8117647 C22.5,14.5568627 23.5,13.5529412 24.75,13.5529412 C30,13.5529412 35.25,13.5529412 40.5,13.5529412 C41.5,13.5529412 42.5,14.3058824 42.75,15.0588235 C43,16.0627451 42.5,17.0666667 41.75,17.5686275 C41.5,17.8196078 41,17.8196078 40.5,17.8196078 C37.75,18.0705882 35,18.0705882 32.5,18.0705882 Z" id="Path"></path>
                                <path d="M32.5,43.6705882 C29.75,43.6705882 27.25,43.6705882 24.5,43.6705882 C23.75,43.6705882 23,43.4196078 22.75,42.6666667 C22.25,41.9137255 22.25,41.1607843 22.75,40.4078431 C23.25,39.654902 23.75,39.1529412 24.75,39.1529412 C28,39.1529412 31,39.1529412 34.25,39.1529412 C36.5,39.1529412 38.5,39.1529412 40.75,39.1529412 C41.75,39.1529412 42.5,39.654902 42.75,40.6588235 C43,41.4117647 42.75,42.4156863 42,42.9176471 C41.5,43.1686275 41,43.4196078 40.5,43.4196078 C37.75,43.6705882 35,43.6705882 32.5,43.6705882 C32.5,43.6705882 32.5,43.6705882 32.5,43.6705882 Z" id="Path"></path>
                                <path d="M19,15.8117647 C19,17.0666667 18,18.0705882 16.5,18.0705882 C15.25,18.0705882 14,17.0666667 14.25,15.5607843 C14.25,14.3058824 15.25,13.3019608 16.75,13.3019608 C18,13.5529412 19,14.5568627 19,15.8117647 Z" id="Path"></path>
                                <path d="M19,41.6627451 C19,42.9176471 18,43.9215686 16.5,43.9215686 C15.25,43.9215686 14.25,42.9176471 14.25,41.4117647 C14.25,40.1568627 15.25,39.1529412 16.75,39.1529412 C18,39.4039216 19,40.4078431 19,41.6627451 Z" id="Path"></path>
                                <path d="M19,24.5960784 C19,25.8509804 18,26.854902 16.75,27.1058824 C15.5,27.1058824 14.25,26.1019608 14.25,24.8470588 C14.25,23.5921569 15.25,22.3372549 16.75,22.3372549 C17.75,22.3372549 19,23.3411765 19,24.5960784 Z" id="Path"></path>
                                <path d="M19,33.3803922 C19,34.6352941 18,35.8901961 16.5,35.8901961 C15.25,35.8901961 14.25,34.8862745 14.25,33.3803922 C14.25,32.1254902 15.25,31.1215686 16.5,31.1215686 C17.75,31.1215686 19,32.1254902 19,33.3803922 Z" id="Path"></path>
                            </g>
                        </g>
                    </g>
                </g>
            </g>
        </g>
    </g>
</svg>