<?xml version="1.0" encoding="UTF-8"?>
<svg width="78px" height="67px" viewBox="0 0 78 67" version="1.1" xmlns="http://www.w3.org/2000/svg" xmlns:xlink="http://www.w3.org/1999/xlink">
    <title>mail</title>
    <defs>
        <filter color-interpolation-filters="auto" id="filter-1">
            <feColorMatrix in="SourceGraphic" type="matrix" values="0 0 0 0 1.000000 0 0 0 0 1.000000 0 0 0 0 1.000000 0 0 0 1.000000 0"></feColorMatrix>
        </filter>
    </defs>
    <g id="Page-1" stroke="none" stroke-width="1" fill="none" fill-rule="evenodd">
        <g id="Cart" transform="translate(-485.000000, -521.000000)">
            <g id="cart-items" transform="translate(443.780000, 235.000000)">
                <g id="mail" transform="translate(0.000000, 237.000000)" filter="url(#filter-1)">
                    <g transform="translate(41.220000, 49.000000)">
                        <g id="Слой_1" transform="translate(2.000000, 2.000000)"></g>
                        <g id="Слой_27" transform="translate(4.000000, 6.000000)" fill="#000000" fill-rule="nonzero">
                            <g id="Group">
                                <path d="M0.25921383,17.9134615 C2.07371064,19.2115385 3.62899363,20.5096154 5.44349044,21.8076923 C12.18305,26.4807692 18.9226096,31.4134615 25.6621692,35.8269231 C27.7358798,37.125 30.0688043,38.1634615 32.142515,38.9423077 C35.2530809,39.9807692 38.3636469,38.9423077 40.9557852,37.125 C43.8071373,35.5673077 46.3992756,33.4903846 48.9914139,31.6730769 C54.4349044,27.7788462 60.1376086,24.1442308 65.5810991,20.25 C66.6179544,19.4711538 67.6548097,18.6923077 68.691665,17.6538462 C68.691665,18.1730769 68.691665,18.4326923 68.691665,18.9519231 C68.691665,28.2980769 68.691665,37.9038462 68.691665,47.25 C68.691665,51.4038462 66.0995267,54 61.9521055,54 C53.9164767,54 45.6216341,54 37.5860054,54 C27.476666,54 17.3673266,54 6.99877342,54 C2.33292447,54 0,51.6634615 0,46.9903846 C0,37.6442308 0,28.2980769 0,19.2115385 C0.25921383,18.6923077 0.25921383,18.1730769 0.25921383,17.9134615 Z" id="Path"></path>
                                <path d="M34.7346533,0 C43.8071373,0 53.1388352,0 62.2113193,0 C65.8403129,0 68.691665,2.07692308 68.9508789,5.19230769 C69.2100927,7.78846154 68.4324512,10.125 66.8771682,12.2019231 C64.5442438,15.3173077 61.4336778,17.3942308 58.3231118,19.4711538 C52.3611937,23.625 46.3992756,27.7788462 40.4373575,31.9326923 C39.9189299,32.1923077 39.659716,32.4519231 39.1412884,32.7115385 C36.2899363,34.7884615 33.1793703,34.7884615 30.3280182,32.7115385 C26.4398107,30.1153846 22.2923894,27.2596154 18.404182,24.4038462 C13.9975468,21.2884615 9.59091172,18.1730769 5.18427661,14.7980769 C3.11056596,13.5 1.29606915,11.4230769 0.518427661,8.82692308 C-0.777641491,4.15384615 2.07371064,0 6.99877342,0 C16.3304713,0 25.4029554,0 34.7346533,0 Z" id="Path"></path>
                            </g>
                        </g>
                    </g>
                </g>
            </g>
        </g>
    </g>
</svg>