<?xml version="1.0" encoding="UTF-8"?>
<svg width="69px" height="61px" viewBox="0 0 69 61" version="1.1" xmlns="http://www.w3.org/2000/svg" xmlns:xlink="http://www.w3.org/1999/xlink">
    <title>orders copy</title>
    <defs>
        <filter color-interpolation-filters="auto" id="filter-1">
            <feColorMatrix in="SourceGraphic" type="matrix" values="0 0 0 0 1.000000 0 0 0 0 1.000000 0 0 0 0 1.000000 0 0 0 1.000000 0"></feColorMatrix>
        </filter>
    </defs>
    <g id="Page-1" stroke="none" stroke-width="1" fill="none" fill-rule="evenodd">
        <g id="Cart" transform="translate(-488.000000, -280.000000)">
            <g id="orders-copy" transform="translate(443.780000, 235.000000)" filter="url(#filter-1)">
                <g transform="translate(44.220000, 45.000000)">
                    <g id="Слой_1" transform="translate(4.000000, 0.000000)"></g>
                    <g id="Слой_26" fill-rule="nonzero">
                        <path d="M0.476190476,27.4065011 C0.476190476,27.4065011 0.476190476,27.1639657 0.476190476,27.4065011 C0.714285714,25.9512887 1.66666667,24.981147 2.85714286,24.7386116 C4.04761905,24.2535408 5.47619048,24.0110054 6.66666667,23.76847 C6.66666667,24.0110054 6.66666667,24.2535408 6.9047619,24.4960762 C7.38095238,26.1938241 9.28571429,27.4065011 10.952381,26.9214303 C13.8095238,26.1938241 16.4285714,25.4662179 19.2857143,24.7386116 C21.1904762,24.2535408 22.1428571,22.0707221 21.4285714,20.3729743 C21.4285714,20.3729743 21.4285714,20.1304389 21.4285714,20.1304389 C22.1428571,19.8879035 22.8571429,19.6453681 23.5714286,19.6453681 C24.2857143,19.4028327 25,19.1602973 25.7142857,19.1602973 C27.3809524,18.432691 28.8095238,19.4028327 29.2857143,20.8580451 C29.7619048,22.7983284 30.2380952,24.7386116 30.7142857,26.9214303 C32.8571429,34.9250988 34.7619048,42.9287673 36.9047619,50.6899003 C37.3809524,52.872719 36.4285714,54.5704669 34.2857143,55.0555377 C29.5238095,56.2682147 25,57.4808918 20.2380952,58.6935688 C17.6190476,59.421175 15,60.1487812 12.1428571,60.8763875 C10.2380952,61.3614583 8.33333333,60.3913166 7.85714286,58.4510334 C5.23809524,48.5070816 2.85714286,38.5631299 0.238095238,28.8617136 C0.238095238,28.6191782 0.238095238,28.3766428 0,28.3766428 C0.476190476,27.8915719 0.476190476,27.6490365 0.476190476,27.4065011 Z M11.4285714,57.7234272 C18.8095238,55.7831439 26.4285714,53.8428606 33.8095238,51.9025774 C31.6666667,43.1713027 29.2857143,34.440028 27.1428571,25.9512887 C19.7619048,27.8915719 12.1428571,29.8318552 4.76190476,31.7721385 C6.9047619,40.5034132 9.28571429,48.9921525 11.4285714,57.7234272 Z" id="Shape" fill="#000000"></path>
                        <path d="M32.1428571,58.4510334 C33.0952381,58.208498 34.2857143,57.9659626 35.2380952,57.7234272 C38.0952381,56.9958209 39.7619048,54.5704669 39.7619048,51.660042 C39.7619048,50.6899003 39.5238095,49.7197587 39.2857143,48.7496171 C36.9047619,39.2907361 34.5238095,29.8318552 32.1428571,20.3729743 C31.1904762,17.220014 27.8571429,15.2797307 24.5238095,16.0073369 C23.3333333,16.2498724 22.1428571,16.7349432 20.952381,16.9774786 C20.7142857,16.9774786 20.4761905,16.9774786 20.4761905,16.9774786 C19.7619048,16.4924078 18.8095238,16.4924078 18.0952381,16.4924078 C17.8571429,16.4924078 17.6190476,16.4924078 17.6190476,16.2498724 C16.1904762,14.5521245 14.5238095,13.8245183 12.3809524,14.5521245 C10.2380952,15.0371953 9.04761905,16.4924078 8.57142857,18.6752264 C8.57142857,18.9177618 8.57142857,18.9177618 8.33333333,19.1602973 C7.61904762,19.4028327 6.9047619,19.8879035 6.42857143,20.6155097 C6.42857143,20.6155097 6.42857143,20.8580451 6.19047619,20.8580451 C6.19047619,20.8580451 6.19047619,20.8580451 6.19047619,20.8580451 C6.19047619,20.8580451 6.19047619,20.6155097 6.19047619,20.6155097 C6.19047619,18.6752264 6.19047619,16.4924078 6.19047619,14.5521245 C6.19047619,12.8543766 6.66666667,11.3991642 7.61904762,10.1864871 C10,7.27606225 12.1428571,4.36563735 14.5238095,1.45521245 C15.2380952,0.485070816 16.1904762,0 17.6190476,0 C29.7619048,0 41.6666667,0 53.8095238,0 C55,0 55.952381,0.485070816 56.6666667,1.45521245 C59.047619,4.36563735 61.1904762,7.27606225 63.5714286,10.1864871 C64.5238095,11.3991642 65,12.8543766 65,14.3095891 C65,27.6490365 65,40.7459486 65,54.085396 C65,56.5107501 63.5714286,58.208498 61.4285714,58.6935688 C61.1904762,58.6935688 60.952381,58.6935688 60.4761905,58.6935688 C51.1904762,58.6935688 41.9047619,58.6935688 32.6190476,58.6935688 C32.3809524,58.6935688 32.3809524,58.6935688 32.1428571,58.4510334 C32.1428571,58.6935688 32.1428571,58.4510334 32.1428571,58.4510334 Z M10,10.1864871 C27.1428571,10.1864871 44.2857143,10.1864871 61.4285714,10.1864871 C60.7142857,9.21634551 60,8.48873929 59.2857143,7.51859766 C59.047619,7.27606225 59.047619,7.27606225 58.5714286,7.27606225 C53.3333333,7.27606225 48.0952381,7.27606225 42.8571429,7.27606225 C42.1428571,7.27606225 42.1428571,7.27606225 41.6666667,6.54845602 C41.4285714,6.06338521 41.1904762,5.33577898 40.952381,4.60817276 C46.1904762,4.60817276 51.4285714,4.60817276 56.6666667,4.60817276 C56.1904762,3.88056653 55.7142857,3.39549572 55.2380952,2.66788949 C54.7619048,1.94028327 54.047619,1.69774786 53.3333333,1.69774786 C41.4285714,1.69774786 29.5238095,1.69774786 17.6190476,1.69774786 C17.6190476,1.69774786 17.3809524,1.69774786 17.3809524,1.69774786 C16.9047619,1.69774786 16.4285714,1.94028327 15.952381,2.42535408 C15.4761905,2.9104249 15,3.63803112 14.5238095,4.12310194 C14.5238095,4.12310194 14.2857143,4.36563735 14.2857143,4.36563735 C19.5238095,4.36563735 24.5238095,4.36563735 29.7619048,4.36563735 C29.2857143,5.09324357 28.8095238,5.8208498 28.3333333,6.79099143 C28.0952381,7.03352684 28.0952381,7.03352684 27.8571429,7.03352684 C22.8571429,7.03352684 17.8571429,7.03352684 12.8571429,7.03352684 C12.3809524,7.03352684 12.1428571,7.03352684 11.9047619,7.51859766 C11.1904762,8.48873929 10.7142857,9.21634551 10,10.1864871 Z" id="Shape" fill="#323232"></path>
                        <path d="M8.0952381,23.2833992 C8.0952381,22.3132576 8.57142857,21.5856513 9.52380952,21.3431159 C9.76190476,21.3431159 10.2380952,21.1005805 10.4761905,21.1005805 C11.1904762,20.8580451 11.4285714,20.3729743 11.1904762,19.8879035 C11.1904762,19.4028327 11.1904762,18.9177618 11.1904762,18.6752264 C11.4285714,17.7050848 12.3809524,16.9774786 13.3333333,16.9774786 C14.2857143,16.9774786 15.2380952,17.7050848 15.4761905,18.6752264 C15.7142857,19.4028327 16.1904762,19.6453681 16.9047619,19.4028327 C17.3809524,19.4028327 17.8571429,19.1602973 18.3333333,19.1602973 C19.2857143,19.1602973 20,19.8879035 20.2380952,21.1005805 C20.2380952,22.0707221 19.7619048,23.0408638 18.8095238,23.2833992 C17.3809524,23.76847 16.1904762,24.0110054 14.7619048,24.2535408 C13.3333333,24.7386116 11.9047619,24.981147 10.4761905,25.4662179 C9.28571429,25.7087533 8.0952381,24.7386116 8.0952381,23.2833992 Z M12.6190476,19.4028327 C12.6190476,19.8879035 13.0952381,20.3729743 13.5714286,20.3729743 C14.047619,20.3729743 14.5238095,19.8879035 14.5238095,19.4028327 C14.5238095,18.9177618 14.047619,18.432691 13.5714286,18.1901556 C13.0952381,18.1901556 12.6190476,18.6752264 12.6190476,19.4028327 Z" id="Shape" fill="#000000"></path>
                        <path d="M8.57142857,36.3803112 C8.0952381,36.3803112 7.85714286,36.1377758 7.61904762,35.1676342 C7.61904762,34.6825634 7.61904762,34.440028 8.0952381,34.440028 C8.57142857,34.440028 8.80952381,34.1974926 9.28571429,34.1974926 C14.2857143,32.7422801 19.5238095,31.5296031 24.5238095,30.0743906 C25,29.8318552 25.2380952,30.0743906 25.4761905,30.5594614 C25.7142857,31.5296031 25.7142857,31.7721385 24.5238095,32.0146739 C19.2857143,33.4698863 13.8095238,34.9250988 8.57142857,36.1377758 C8.80952381,36.1377758 8.57142857,36.3803112 8.57142857,36.3803112 Z" id="Path" fill="#000000"></path>
                        <path d="M27.3809524,37.1079175 C27.3809524,37.5929883 27.1428571,37.8355237 26.6666667,37.8355237 C25.2380952,38.0780591 24.047619,38.5631299 22.6190476,38.8056653 C18.5714286,39.7758069 14.2857143,40.988484 10.2380952,41.9586256 C9.52380952,42.201161 9.28571429,41.9586256 9.04761905,41.2310194 C9.04761905,41.2310194 9.04761905,40.988484 9.04761905,40.988484 C9.04761905,40.5034132 9.04761905,40.2608778 9.52380952,40.0183424 C11.1904762,39.5332715 12.6190476,39.2907361 14.2857143,38.8056653 C18.0952381,37.8355237 21.9047619,36.8653821 25.952381,35.652705 C26.6666667,35.4101696 26.9047619,35.652705 27.1428571,36.3803112 C27.1428571,36.6228466 27.3809524,36.8653821 27.3809524,37.1079175 Z" id="Path" fill="#000000"></path>
                        <path d="M24.5238095,41.7160902 C25,41.7160902 25.2380952,41.9586256 25.4761905,42.9287673 C25.4761905,43.4138381 25.4761905,43.6563735 25,43.6563735 C24.5238095,43.8989089 24.047619,43.8989089 23.3333333,44.1414443 C19.5238095,45.1115859 15.4761905,46.0817276 11.6666667,47.2944046 C10.952381,47.53694 10.7142857,47.2944046 10.7142857,46.5667984 C10.7142857,46.324263 10.7142857,46.324263 10.7142857,46.0817276 C10.7142857,45.5966567 10.7142857,45.3541213 11.1904762,45.1115859 C12.8571429,44.6265151 14.5238095,44.1414443 16.1904762,43.6563735 C18.8095238,42.9287673 21.6666667,42.201161 24.2857143,41.4735548 C24.2857143,41.9586256 24.5238095,41.7160902 24.5238095,41.7160902 Z" id="Path" fill="#000000"></path>
                        <path d="M25.7142857,49.2346879 C25.7142857,49.7197587 25.4761905,49.9622941 25.2380952,49.9622941 C24.047619,50.2048295 22.8571429,50.6899003 21.6666667,50.9324357 C18.8095238,51.660042 16.1904762,52.3876482 13.3333333,53.1152544 C12.6190476,53.3577898 12.3809524,53.1152544 12.1428571,52.3876482 C12.1428571,52.3876482 12.1428571,52.1451128 12.1428571,52.1451128 C11.9047619,51.660042 12.1428571,51.4175065 12.6190476,51.1749711 C13.8095238,50.9324357 15.2380952,50.4473649 16.4285714,50.2048295 C19.047619,49.4772233 21.6666667,48.7496171 24.2857143,48.2645462 C25,48.0220108 25.4761905,48.2645462 25.4761905,48.9921525 C25.4761905,48.9921525 25.7142857,49.2346879 25.7142857,49.2346879 Z" id="Path" fill="#000000"></path>
                    </g>
                </g>
            </g>
        </g>
    </g>
</svg>