<?xml version="1.0" encoding="UTF-8"?>
<svg width="17px" height="15px" viewBox="0 0 17 15" version="1.1" xmlns="http://www.w3.org/2000/svg" xmlns:xlink="http://www.w3.org/1999/xlink">
    <title>orders</title>
    <g id="Page-1" stroke="none" stroke-width="1" fill="none" fill-rule="evenodd">
        <g id="Cart" transform="translate(-178.000000, -293.000000)">
            <g id="Sidebar" transform="translate(157.780000, 217.000000)">
                <g id="Sidebar_buttons" transform="translate(0.000000, 18.000000)">
                    <g id="Group-Copy-3" transform="translate(0.000000, 44.000000)">
                        <g id="orders" transform="translate(20.220000, 14.000000)">
                            <g id="Слой_1" transform="translate(1.000000, 0.000000)"></g>
                            <g id="Слой_26" fill-rule="nonzero">
                                <path d="M0.117216117,6.73930356 C0.117216117,6.73930356 0.117216117,6.6796637 0.117216117,6.73930356 C0.175824176,6.38146443 0.41025641,6.14290501 0.703296703,6.08326516 C0.996336996,5.96398545 1.34798535,5.90434559 1.64102564,5.84470574 C1.64102564,5.90434559 1.64102564,5.96398545 1.6996337,6.0236253 C1.81684982,6.44110428 2.28571429,6.73930356 2.6959707,6.62002385 C3.3992674,6.44110428 4.04395604,6.26218472 4.74725275,6.08326516 C5.21611722,5.96398545 5.45054945,5.42722676 5.27472527,5.00974778 C5.27472527,5.00974778 5.27472527,4.95010792 5.27472527,4.95010792 C5.45054945,4.89046807 5.62637363,4.83082821 5.8021978,4.83082821 C5.97802198,4.77118836 6.15384615,4.7115485 6.32967033,4.7115485 C6.73992674,4.53262894 7.09157509,4.77118836 7.20879121,5.12902749 C7.32600733,5.60614632 7.44322344,6.08326516 7.56043956,6.62002385 C8.08791209,8.58813905 8.55677656,10.5562542 9.08424908,12.4647296 C9.2014652,13.0014883 8.96703297,13.4189673 8.43956044,13.538247 C7.26739927,13.8364462 6.15384615,14.1346455 4.98168498,14.4328448 C4.33699634,14.6117643 3.69230769,14.7906839 2.98901099,14.9696035 C2.52014652,15.0888832 2.05128205,14.8503238 1.93406593,14.3732049 C1.28937729,11.9279709 0.703296703,9.48273686 0.0586080586,7.09714268 C0.0586080586,7.03750283 0.0586080586,6.97786297 0,6.97786297 C0.117216117,6.85858327 0.117216117,6.79894341 0.117216117,6.73930356 Z M2.81318681,14.1942854 C4.63003663,13.7171665 6.50549451,13.2400477 8.32234432,12.7629289 C7.79487179,10.6158941 7.20879121,8.46885934 6.68131868,6.38146443 C4.86446886,6.85858327 2.98901099,7.3357021 1.17216117,7.81282094 C1.6996337,9.9598557 2.28571429,12.0472506 2.81318681,14.1942854 Z" id="Shape" fill="#000000"></path>
                                <path d="M7.91208791,14.3732049 C8.14652015,14.3135651 8.43956044,14.2539252 8.67399267,14.1942854 C9.37728938,14.0153658 9.78754579,13.4189673 9.78754579,12.703289 C9.78754579,12.4647296 9.72893773,12.2261702 9.67032967,11.9876108 C9.08424908,9.66165643 8.4981685,7.3357021 7.91208791,5.00974778 C7.67765568,4.23442967 6.85714286,3.75731083 6.03663004,3.9362304 C5.74358974,3.99587025 5.45054945,4.11514996 5.15750916,4.17478981 C5.0989011,4.17478981 5.04029304,4.17478981 5.04029304,4.17478981 C4.86446886,4.0555101 4.63003663,4.0555101 4.45421245,4.0555101 C4.3956044,4.0555101 4.33699634,4.0555101 4.33699634,3.99587025 C3.98534799,3.57839127 3.57509158,3.39947171 3.04761905,3.57839127 C2.52014652,3.69767098 2.22710623,4.0555101 2.10989011,4.5922688 C2.10989011,4.65190865 2.10989011,4.65190865 2.05128205,4.7115485 C1.87545788,4.77118836 1.6996337,4.89046807 1.58241758,5.06938763 C1.58241758,5.06938763 1.58241758,5.12902749 1.52380952,5.12902749 C1.52380952,5.12902749 1.52380952,5.12902749 1.52380952,5.12902749 C1.52380952,5.12902749 1.52380952,5.06938763 1.52380952,5.06938763 C1.52380952,4.5922688 1.52380952,4.0555101 1.52380952,3.57839127 C1.52380952,3.16091229 1.64102564,2.80307316 1.87545788,2.50487389 C2.46153846,1.78919563 2.98901099,1.07351738 3.57509158,0.357839127 C3.75091575,0.119279709 3.98534799,0 4.33699634,0 C7.32600733,0 10.2564103,0 13.2454212,0 C13.5384615,0 13.7728938,0.119279709 13.9487179,0.357839127 C14.5347985,1.07351738 15.0622711,1.78919563 15.6483516,2.50487389 C15.8827839,2.80307316 16,3.16091229 16,3.51875141 C16,6.79894341 16,10.0194956 16,13.2996875 C16,13.8960861 15.6483516,14.3135651 15.1208791,14.4328448 C15.0622711,14.4328448 15.003663,14.4328448 14.8864469,14.4328448 C12.6007326,14.4328448 10.3150183,14.4328448 8.02930403,14.4328448 C7.97069597,14.4328448 7.97069597,14.4328448 7.91208791,14.3732049 C7.91208791,14.4328448 7.91208791,14.3732049 7.91208791,14.3732049 Z M2.46153846,2.50487389 C6.68131868,2.50487389 10.9010989,2.50487389 15.1208791,2.50487389 C14.9450549,2.26631447 14.7692308,2.08739491 14.5934066,1.84883549 C14.5347985,1.78919563 14.5347985,1.78919563 14.4175824,1.78919563 C13.1282051,1.78919563 11.8388278,1.78919563 10.5494505,1.78919563 C10.3736264,1.78919563 10.3736264,1.78919563 10.2564103,1.61027607 C10.1978022,1.49099636 10.1391941,1.3120768 10.0805861,1.13315724 C11.3699634,1.13315724 12.6593407,1.13315724 13.9487179,1.13315724 C13.8315018,0.954237672 13.7142857,0.834957963 13.5970696,0.656038399 C13.4798535,0.477118836 13.3040293,0.417478981 13.1282051,0.417478981 C10.1978022,0.417478981 7.26739927,0.417478981 4.33699634,0.417478981 C4.33699634,0.417478981 4.27838828,0.417478981 4.27838828,0.417478981 C4.16117216,0.417478981 4.04395604,0.477118836 3.92673993,0.596398545 C3.80952381,0.715678254 3.69230769,0.894597817 3.57509158,1.01387753 C3.57509158,1.01387753 3.51648352,1.07351738 3.51648352,1.07351738 C4.80586081,1.07351738 6.03663004,1.07351738 7.32600733,1.07351738 C7.20879121,1.25243694 7.09157509,1.43135651 6.97435897,1.66991593 C6.91575092,1.72955578 6.91575092,1.72955578 6.85714286,1.72955578 C5.62637363,1.72955578 4.3956044,1.72955578 3.16483516,1.72955578 C3.04761905,1.72955578 2.98901099,1.72955578 2.93040293,1.84883549 C2.75457875,2.08739491 2.63736264,2.26631447 2.46153846,2.50487389 Z" id="Shape" fill="#323232"></path>
                                <path d="M1.99267399,5.72542603 C1.99267399,5.48686661 2.10989011,5.30794705 2.34432234,5.24830719 C2.4029304,5.24830719 2.52014652,5.18866734 2.57875458,5.18866734 C2.75457875,5.12902749 2.81318681,5.00974778 2.75457875,4.89046807 C2.75457875,4.77118836 2.75457875,4.65190865 2.75457875,4.5922688 C2.81318681,4.35370938 3.04761905,4.17478981 3.28205128,4.17478981 C3.51648352,4.17478981 3.75091575,4.35370938 3.80952381,4.5922688 C3.86813187,4.77118836 3.98534799,4.83082821 4.16117216,4.77118836 C4.27838828,4.77118836 4.3956044,4.7115485 4.51282051,4.7115485 C4.74725275,4.7115485 4.92307692,4.89046807 4.98168498,5.18866734 C4.98168498,5.42722676 4.86446886,5.66578618 4.63003663,5.72542603 C4.27838828,5.84470574 3.98534799,5.90434559 3.63369963,5.96398545 C3.28205128,6.08326516 2.93040293,6.14290501 2.57875458,6.26218472 C2.28571429,6.32182458 1.99267399,6.08326516 1.99267399,5.72542603 Z M3.10622711,4.77118836 C3.10622711,4.89046807 3.22344322,5.00974778 3.34065934,5.00974778 C3.45787546,5.00974778 3.57509158,4.89046807 3.57509158,4.77118836 C3.57509158,4.65190865 3.45787546,4.53262894 3.34065934,4.47298909 C3.22344322,4.47298909 3.10622711,4.5922688 3.10622711,4.77118836 Z" id="Shape" fill="#000000"></path>
                                <path d="M2.10989011,8.94597817 C1.99267399,8.94597817 1.93406593,8.88633832 1.87545788,8.6477789 C1.87545788,8.52849919 1.87545788,8.46885934 1.99267399,8.46885934 C2.10989011,8.46885934 2.16849817,8.40921948 2.28571429,8.40921948 C3.51648352,8.05138036 4.80586081,7.75318108 6.03663004,7.39534196 C6.15384615,7.3357021 6.21245421,7.39534196 6.27106227,7.51462166 C6.32967033,7.75318108 6.32967033,7.81282094 6.03663004,7.87246079 C4.74725275,8.23029992 3.3992674,8.58813905 2.10989011,8.88633832 C2.16849817,8.88633832 2.10989011,8.94597817 2.10989011,8.94597817 Z" id="Path" fill="#000000"></path>
                                <path d="M6.73992674,9.12489774 C6.73992674,9.24417744 6.68131868,9.3038173 6.56410256,9.3038173 C6.21245421,9.36345715 5.91941392,9.48273686 5.56776557,9.54237672 C4.57142857,9.78093614 3.51648352,10.0791354 2.52014652,10.3176948 C2.34432234,10.3773347 2.28571429,10.3176948 2.22710623,10.1387753 C2.22710623,10.1387753 2.22710623,10.0791354 2.22710623,10.0791354 C2.22710623,9.9598557 2.22710623,9.90021584 2.34432234,9.84057599 C2.75457875,9.72129628 3.10622711,9.66165643 3.51648352,9.54237672 C4.45421245,9.3038173 5.39194139,9.06525788 6.38827839,8.76705861 C6.56410256,8.70741875 6.62271062,8.76705861 6.68131868,8.94597817 C6.68131868,9.00561803 6.73992674,9.06525788 6.73992674,9.12489774 Z" id="Path" fill="#000000"></path>
                                <path d="M6.03663004,10.258055 C6.15384615,10.258055 6.21245421,10.3176948 6.27106227,10.5562542 C6.27106227,10.675534 6.27106227,10.7351738 6.15384615,10.7351738 C6.03663004,10.7948137 5.91941392,10.7948137 5.74358974,10.8544535 C4.80586081,11.0930129 3.80952381,11.3315724 2.87179487,11.6297716 C2.6959707,11.6894115 2.63736264,11.6297716 2.63736264,11.4508521 C2.63736264,11.3912122 2.63736264,11.3912122 2.63736264,11.3315724 C2.63736264,11.2122926 2.63736264,11.1526528 2.75457875,11.0930129 C3.16483516,10.9737332 3.57509158,10.8544535 3.98534799,10.7351738 C4.63003663,10.5562542 5.33333333,10.3773347 5.97802198,10.1984151 C5.97802198,10.3176948 6.03663004,10.258055 6.03663004,10.258055 Z" id="Path" fill="#000000"></path>
                                <path d="M6.32967033,12.1068905 C6.32967033,12.2261702 6.27106227,12.28581 6.21245421,12.28581 C5.91941392,12.3454499 5.62637363,12.4647296 5.33333333,12.5243694 C4.63003663,12.703289 3.98534799,12.8822086 3.28205128,13.0611281 C3.10622711,13.120768 3.04761905,13.0611281 2.98901099,12.8822086 C2.98901099,12.8822086 2.98901099,12.8225687 2.98901099,12.8225687 C2.93040293,12.703289 2.98901099,12.6436492 3.10622711,12.5840093 C3.3992674,12.5243694 3.75091575,12.4050897 4.04395604,12.3454499 C4.68864469,12.1665303 5.33333333,11.9876108 5.97802198,11.868331 C6.15384615,11.8086912 6.27106227,11.868331 6.27106227,12.0472506 C6.27106227,12.0472506 6.32967033,12.1068905 6.32967033,12.1068905 Z" id="Path" fill="#000000"></path>
                            </g>
                        </g>
                    </g>
                </g>
            </g>
        </g>
    </g>
</svg>