<?xml version="1.0" encoding="UTF-8"?>
<svg width="15px" height="13px" viewBox="0 0 15 13" version="1.1" xmlns="http://www.w3.org/2000/svg" xmlns:xlink="http://www.w3.org/1999/xlink">
    <title>personal</title>
    <defs>
        <filter color-interpolation-filters="auto" id="filter-1">
            <feColorMatrix in="SourceGraphic" type="matrix" values="0 0 0 0 0.196078 0 0 0 0 0.196078 0 0 0 0 0.196078 0 0 0 1.000000 0"></feColorMatrix>
        </filter>
    </defs>
    <g id="Page-1" stroke="none" stroke-width="1" fill="none" fill-rule="evenodd">
        <g id="Cart" transform="translate(-178.000000, -338.000000)">
            <g id="Sidebar" transform="translate(157.780000, 217.000000)">
                <g id="Sidebar_buttons" transform="translate(0.000000, 18.000000)">
                    <g id="personal" transform="translate(0.000000, 88.000000)" filter="url(#filter-1)">
                        <g transform="translate(20.220000, 15.000000)">
                            <g id="Слой_1"></g>
                            <g id="Слой_27" transform="translate(4.000000, 0.000000)" fill="#000000" fill-rule="nonzero">
                                <path d="M6.46312524,3.58406705 C6.46312524,4.30441164 6.20306092,5.12766261 5.68293228,5.8994604 C5.42286796,6.36253907 5.05877791,6.72271136 4.59066213,7.03143048 C3.9144949,7.49450915 3.23832766,7.59741552 2.4581347,7.39160278 C2.09404465,7.2886964 1.83398033,7.08288366 1.52190315,6.82561774 C0.897748775,6.25963269 0.481645862,5.59074128 0.221581542,4.8189435 C0.0655429491,4.20150527 -0.0384827792,3.58406705 0.013530085,2.96662882 C0.117555813,2.24628422 0.429632998,1.57739281 0.949761639,1.01140777 C1.46989028,0.445422728 2.09404465,0.136703615 2.82222475,0.0337972436 C3.23832766,-0.017655942 3.65443057,-0.017655942 4.01852062,0.0852504291 C4.64267499,0.239609986 5.16280363,0.548329099 5.57890655,1.01140777 C6.20306092,1.73175237 6.46312524,2.45209696 6.46312524,3.58406705 Z" id="Path"></path>
                                <g id="Group" transform="translate(6.151048, 9.192464)">
                                    <path d="M1.92447597,3.80753573 C0.88421869,3.80753573 0,2.98428476 0,1.90376787 C0,0.874704154 0.88421869,0 1.97648884,0 C2.96473326,0 3.84895195,0.823250969 3.84895195,1.90376787 C3.84895195,2.98428476 3.01674612,3.80753573 1.92447597,3.80753573 Z M1.3003216,1.69795512 C1.3003216,1.69795512 1.24830874,1.69795512 1.24830874,1.69795512 C1.14428301,1.69795512 1.09227015,1.74940831 1.09227015,1.85231468 C1.09227015,2.16103379 1.09227015,2.41829972 1.09227015,2.72701883 C1.09227015,2.8299252 1.14428301,2.88137839 1.24830874,2.88137839 C1.71642452,2.88137839 2.23655316,2.88137839 2.70466894,2.88137839 C2.80869466,2.88137839 2.86070753,2.8299252 2.86070753,2.72701883 C2.86070753,2.41829972 2.86070753,2.16103379 2.86070753,1.85231468 C2.86070753,1.74940831 2.80869466,1.69795512 2.70466894,1.69795512 C2.70466894,1.69795512 2.65265607,1.69795512 2.65265607,1.69795512 C2.65265607,1.59504875 2.65265607,1.54359557 2.65265607,1.4406892 C2.65265607,1.0805169 2.39259175,0.771797783 2.0285017,0.771797783 C1.61239879,0.720344598 1.24830874,1.02906371 1.24830874,1.4406892 C1.3003216,1.49214238 1.3003216,1.59504875 1.3003216,1.69795512 Z" id="Shape"></path>
                                    <path d="M2.39259175,1.69795512 C2.13252743,1.69795512 1.87246311,1.69795512 1.61239879,1.69795512 C1.61239879,1.54359557 1.56038592,1.33778282 1.66441165,1.18342327 C1.76843738,1.02906371 1.92447597,0.977610525 2.08051457,1.02906371 C2.23655316,1.0805169 2.34057889,1.23487645 2.34057889,1.38923601 C2.39259175,1.49214238 2.39259175,1.59504875 2.39259175,1.69795512 Z" id="Path"></path>
                                </g>
                            </g>
                            <g id="Слой_28" transform="translate(1.000000, 7.000000)" fill="#000000" fill-rule="nonzero">
                                <path d="M8.42476095,4.19656489 C8.42476095,2.85687023 9.43935581,1.82633588 10.6472068,1.82633588 C11.1786613,1.82633588 11.6134877,2.03244275 12,2.34160305 C11.9033719,2.03244275 11.7101158,1.77480916 11.4202315,1.56870229 C11.1303473,1.41412214 10.8887771,1.20801527 10.5988928,1.05343511 C9.92249623,0.692748092 9.24609965,0.383587786 8.52138903,0.0744274809 C8.47307499,0.0744274809 8.47307499,0.0744274809 8.42476095,0.0744274809 C8.23150478,0.229007634 8.08656266,0.435114504 7.84499245,0.589694656 C7.41016608,0.898854962 6.97533971,1.15648855 6.44388525,1.15648855 C5.67086059,1.20801527 4.99446402,1.05343511 4.36638148,0.538167939 C4.17312531,0.383587786 3.97986915,0.229007634 3.78661298,0.0229007634 C3.78661298,0.0229007634 3.73829894,-0.0286259542 3.6899849,0.0229007634 C3.15853045,0.280534351 2.57876195,0.486641221 2.0473075,0.744274809 C1.70910921,1.05343511 1.27428284,1.3110687 0.887770508,1.56870229 C0.646200302,1.72328244 0.452944137,1.92938931 0.356316054,2.23854962 C0.211373931,2.65076336 0.114745848,3.0629771 0.0181177655,3.47519084 C-0.0301962758,3.73282443 0.0181177655,3.99045802 0.163059889,4.19656489 C0.259687972,4.40267176 0.452944137,4.55725191 0.597886261,4.66030534 C1.08102667,5.02099237 1.61248113,5.22709924 2.14393558,5.43320611 C2.82033216,5.63931298 3.54504278,5.79389313 4.2697534,5.89694656 C4.89783593,6 5.52591847,6 6.15400101,6 C6.58882738,6 7.07196779,5.94847328 7.50679416,5.94847328 C7.98993457,5.89694656 8.42476095,5.84541985 8.90790136,5.74236641 C8.66633115,5.33015267 8.42476095,4.76335878 8.42476095,4.19656489 Z" id="Path"></path>
                            </g>
                        </g>
                    </g>
                </g>
            </g>
        </g>
    </g>
</svg>