<?xml version="1.0" encoding="UTF-8"?>
<svg width="73px" height="63px" viewBox="0 0 73 63" version="1.1" xmlns="http://www.w3.org/2000/svg" xmlns:xlink="http://www.w3.org/1999/xlink">
    <title>personal copy</title>
    <defs>
        <filter color-interpolation-filters="auto" id="filter-1">
            <feColorMatrix in="SourceGraphic" type="matrix" values="0 0 0 0 1.000000 0 0 0 0 1.000000 0 0 0 0 1.000000 0 0 0 1.000000 0"></feColorMatrix>
        </filter>
    </defs>
    <g id="Page-1" stroke="none" stroke-width="1" fill="none" fill-rule="evenodd">
        <g id="Cart" transform="translate(-677.000000, -278.000000)">
            <g id="cart-items" transform="translate(443.780000, 235.000000)">
                <g id="personal-copy" transform="translate(190.000000, 0.000000)" filter="url(#filter-1)">
                    <g transform="translate(43.220000, 43.000000)">
                        <g id="Слой_1" transform="translate(0.000000, 1.000000)"></g>
                        <g id="Слой_27" transform="translate(19.000000, 0.000000)" fill="#000000" fill-rule="nonzero">
                            <path d="M31.0230011,17.0932428 C31.0230011,20.5287325 29.7746924,24.4550063 27.2780749,28.135888 C26.0297662,30.3444171 24.282134,32.0621619 22.0351782,33.5345146 C18.7895755,35.7430436 15.5439728,36.2338279 11.7990466,35.2522594 C10.0514143,34.7614752 8.80310558,33.7799067 7.3051351,32.5529461 C4.30919412,29.8536328 2.31190014,26.6635353 1.0635914,22.9826536 C0.314606156,20.0379482 -0.18471734,17.0932428 0.0649444078,14.1485374 C0.564267904,10.7130478 2.06223839,7.52295032 4.55885587,4.82363705 C7.05547335,2.12432378 10.0514143,0.651971085 13.5466788,0.161186854 C15.5439728,-0.0842052617 17.5412668,-0.0842052617 19.288899,0.40657897 C22.28484,1.14275532 24.7814574,2.61510801 26.7787514,4.82363705 C29.7746924,8.25912667 31.0230011,11.6946163 31.0230011,17.0932428 Z" id="Path"></path>
                            <g id="Group" transform="translate(29.525031, 43.840983)">
                                <path d="M9.23748467,18.1590166 C4.24424971,18.1590166 0,14.2327427 0,9.07950828 C0,4.17166597 4.24424971,0 9.48714642,0 C14.2307196,0 18.4749693,3.92627385 18.4749693,9.07950828 C18.4749693,14.2327427 14.4803814,18.1590166 9.23748467,18.1590166 Z M6.2415437,8.09793982 C6.2415437,8.09793982 5.99188195,8.09793982 5.99188195,8.09793982 C5.49255845,8.09793982 5.24289671,8.34333193 5.24289671,8.83411616 C5.24289671,10.3064689 5.24289671,11.5334294 5.24289671,13.0057821 C5.24289671,13.4965664 5.49255845,13.7419585 5.99188195,13.7419585 C8.23883768,13.7419585 10.7354552,13.7419585 12.9824109,13.7419585 C13.4817344,13.7419585 13.7313961,13.4965664 13.7313961,13.0057821 C13.7313961,11.5334294 13.7313961,10.3064689 13.7313961,8.83411616 C13.7313961,8.34333193 13.4817344,8.09793982 12.9824109,8.09793982 C12.9824109,8.09793982 12.7327491,8.09793982 12.7327491,8.09793982 C12.7327491,7.60715559 12.7327491,7.36176347 12.7327491,6.87097924 C12.7327491,5.15323443 11.4844404,3.68088173 9.73680817,3.68088173 C7.73951418,3.43548962 5.99188195,4.90784231 5.99188195,6.87097924 C6.2415437,7.11637135 6.2415437,7.60715559 6.2415437,8.09793982 Z" id="Shape"></path>
                                <path d="M11.4844404,8.09793982 C10.2361317,8.09793982 8.98782292,8.09793982 7.73951418,8.09793982 C7.73951418,7.36176347 7.48985244,6.38019501 7.98917593,5.64401866 C8.48849943,4.90784231 9.23748467,4.6624502 9.98646992,4.90784231 C10.7354552,5.15323443 11.2347787,5.88941078 11.2347787,6.62558712 C11.4844404,7.11637135 11.4844404,7.60715559 11.4844404,8.09793982 Z" id="Path"></path>
                            </g>
                        </g>
                        <g id="Слой_28" transform="translate(5.000000, 34.000000)" fill="#000000" fill-rule="nonzero">
                            <path d="M40.7196779,19.5839695 C40.7196779,13.3320611 45.6235531,8.52290076 51.4614997,8.52290076 C54.0301963,8.52290076 56.1318571,9.48473282 58,10.9274809 C57.5329643,9.48473282 56.5988928,8.28244275 55.1977856,7.32061069 C53.7966784,6.59923664 52.6290891,5.63740458 51.2279819,4.91603053 C47.9587318,3.23282443 44.6894816,1.79007634 41.1867136,0.347328244 C40.9531958,0.347328244 40.9531958,0.347328244 40.7196779,0.347328244 C39.7856064,1.06870229 39.0850528,2.03053435 37.9174635,2.7519084 C35.8158027,4.19465649 33.7141419,5.39694656 31.1454454,5.39694656 C27.4091595,5.63740458 24.1399094,4.91603053 21.1041772,2.51145038 C20.1701057,1.79007634 19.2360342,1.06870229 18.3019628,0.106870229 C18.3019628,0.106870229 18.0684449,-0.133587786 17.834927,0.106870229 C15.2662305,1.30916031 12.4640161,2.27099237 9.89531958,3.47328244 C8.26069451,4.91603053 6.15903372,6.11832061 4.29089079,7.32061069 C3.12330146,8.04198473 2.18922999,9.00381679 1.72219426,10.4465649 C1.02164066,12.370229 0.554604932,14.2938931 0.0875691998,16.2175573 C-0.145948666,17.4198473 0.0875691998,18.6221374 0.788122798,19.5839695 C1.25515853,20.5458015 2.18922999,21.2671756 2.88978359,21.7480916 C5.22496225,23.4312977 7.79365878,24.3931298 10.3623553,25.3549618 C13.6316054,26.3167939 17.1343734,27.0381679 20.6371414,27.519084 C23.6728737,28 26.7086059,28 29.7443382,28 C31.845999,28 34.1811777,27.759542 36.2828384,27.759542 C38.6180171,27.519084 40.7196779,27.278626 43.0548566,26.7977099 C41.8872672,24.8740458 40.7196779,22.2290076 40.7196779,19.5839695 Z" id="Path"></path>
                        </g>
                    </g>
                </g>
            </g>
        </g>
    </g>
</svg>