<svg id="Слой_1" data-name="Слой 1" xmlns="http://www.w3.org/2000/svg" viewBox="0 0 307.22 155.41"><defs><style>.cls-1{fill:#1d1d1b;}.cls-2{fill:#af4492;}.cls-3{fill:#2a3173;}.cls-4{fill:#fff;}</style></defs><path class="cls-1" d="M179.44,85.63" transform="translate(-193.18 -77.94)"/><rect class="cls-2" x="196.67" y="94.35" width="222.8" height="63.16" transform="translate(-208.63 -30.11) rotate(-8.66)"/><rect class="cls-3" x="273.53" y="146.17" width="222.8" height="70.81" transform="translate(-216.14 -17.9) rotate(-8.66)"/><path class="cls-4" d="M254,152.67l-2.3-6.47,7.71-1.18c.56-.08.8-.37.73-.87l-1-6.52c-.08-.5-.22-.78-.44-.85a2.64,2.64,0,0,0-1.06,0l-3.7.57a9,9,0,0,1-1.53.1,2.84,2.84,0,0,1-1.37-.37,2.93,2.93,0,0,1-1.08-1.1,5.79,5.79,0,0,1-.65-2.08l-1.85-12.16a4.3,4.3,0,0,1,4.14-5.38l9.88-1.51,2.26,6.49-8.11,1.23c-.59.09-.85.4-.77.93l1,6.52a.87.87,0,0,0,.39.7,1.4,1.4,0,0,0,.85.08l4.49-.69a3.92,3.92,0,0,1,2.77.41,3.78,3.78,0,0,1,1.35,2.71l1.8,11.81c.3,2,.11,3.44-.57,4.39s-2.05,1.57-4.09,1.88Z" transform="translate(-193.18 -77.94)"/><path class="cls-4" d="M279.9,112.05a4.11,4.11,0,0,1,3.37.71,4.59,4.59,0,0,1,1.54,3l2.62,17.15a8,8,0,0,1,.06,1.94,3.48,3.48,0,0,1-.58,1.63,4.1,4.1,0,0,1-1.43,1.25,7.13,7.13,0,0,1-2.41.75l-6.13.93,1.45,9.54L271.27,150l-5.46-35.84Zm-6,7.34L276,133.48l3.56-.54c.3-.05.48-.13.54-.26a1,1,0,0,0,0-.59l-1.93-12.65c-.07-.46-.32-.66-.74-.6Z" transform="translate(-193.18 -77.94)"/><path class="cls-4" d="M316.42,138a7.87,7.87,0,0,1,.05,2,4,4,0,0,1-2,3.09,6.62,6.62,0,0,1-2.41.8l-8.3,1.26a6.45,6.45,0,0,1-2.54,0,4.3,4.3,0,0,1-1.75-.87,4.2,4.2,0,0,1-1.08-1.48,7.77,7.77,0,0,1-.55-1.92l-4-26.1A4.29,4.29,0,0,1,298,109.3l8.9-1.36a4.3,4.3,0,0,1,5.55,3.91ZM302,115.12c-.42.06-.6.33-.53.79l3.32,21.84a1.06,1.06,0,0,0,.21.55q.15.16.6.09l2.72-.41c.29,0,.48-.13.54-.26a1.07,1.07,0,0,0,0-.59l-3.33-21.85c-.07-.46-.32-.66-.75-.59Z" transform="translate(-193.18 -77.94)"/><path class="cls-4" d="M342.55,124.26a3.4,3.4,0,0,1-.48,2.3,3,3,0,0,1-2.25,1.35l5.5,10.85-7.42,1.13L332.7,129l-.94.14,1.74,11.42-7.16,1.09-5.46-35.84,13.59-2.07a4.86,4.86,0,0,1,3.87.7,4.79,4.79,0,0,1,1.68,3.21ZM329,111l1.88,12.36,3.51-.54c.46-.07.66-.35.58-.85l-1.65-10.87c-.08-.49-.35-.71-.81-.64Z" transform="translate(-193.18 -77.94)"/><path class="cls-4" d="M356.52,100.38l2.79,6.41-4.79.73L359,136.68l-7.32,1.11-4.44-29.16-4.79.73.86-7Z" transform="translate(-193.18 -77.94)"/><path class="cls-4" d="M367.51,135.38l-2.3-6.48,7.71-1.17c.56-.09.8-.38.73-.87l-1-6.53c-.08-.49-.22-.77-.44-.84a2.47,2.47,0,0,0-1.06,0l-3.71.56a8.85,8.85,0,0,1-1.52.11,2.85,2.85,0,0,1-1.37-.38,2.79,2.79,0,0,1-1.08-1.1,5.73,5.73,0,0,1-.65-2.07L361,104.46a4.31,4.31,0,0,1,4.14-5.39l9.88-1.5,2.26,6.48-8.11,1.24c-.59.09-.85.4-.77.92l1,6.53a.91.91,0,0,0,.39.7,1.38,1.38,0,0,0,.84.07l4.5-.68a3.87,3.87,0,0,1,2.77.41,3.74,3.74,0,0,1,1.35,2.7l1.8,11.82c.3,2,.11,3.44-.57,4.38s-2.05,1.58-4.09,1.89Z" transform="translate(-193.18 -77.94)"/><path class="cls-4" d="M339.43,183.46a6.63,6.63,0,0,1-.24,3.27,4.1,4.1,0,0,1-2.4,2.28,3.73,3.73,0,0,1,3.18,1,5,5,0,0,1,1.36,2.78l1.95,12.8q.63,4.08-.81,6.11t-5.72,2.68l-17.89,2.72-7.52-49.33,19.26-2.93a5.65,5.65,0,0,1,4.64,1,6.33,6.33,0,0,1,2.12,4.13Zm-17-8.56,2,12.93,4.62-.71a1.23,1.23,0,0,0,.84-.44,1.26,1.26,0,0,0,.19-1L328.46,175c-.1-.63-.45-.91-1-.82Zm9.31,20.93a1.32,1.32,0,0,0-.58-1.06,1.79,1.79,0,0,0-1.13-.14l-4.49.68L327.34,207l5-.76a1.06,1.06,0,0,0,.78-.36,1.19,1.19,0,0,0,.08-.81Z" transform="translate(-193.18 -77.94)"/><path class="cls-4" d="M341,163.23l19.19-2.92,3.1,8.93-10.75,1.63,1.78,11.71,8.17-1.25,1.29,8.51-8.16,1.24,1.64,10.75,10.34-1.57-.3,9.45-18.78,2.86Z" transform="translate(-193.18 -77.94)"/><path class="cls-4" d="M395.14,184.92a4.64,4.64,0,0,1-.66,3.17,4.09,4.09,0,0,1-3.1,1.86L399,204.88l-10.21,1.56-7.16-15-1.29.19,2.4,15.72-9.87,1.51-7.52-49.34L384,156.68q3.47-.52,5.33,1a6.73,6.73,0,0,1,2.31,4.42Zm-18.65-18.25,2.59,17,4.83-.73a.89.89,0,0,0,.8-1.17l-2.28-15c-.11-.68-.48-1-1.11-.88Z" transform="translate(-193.18 -77.94)"/><path class="cls-4" d="M424.74,180.42a4.62,4.62,0,0,1-.66,3.16,4.07,4.07,0,0,1-3.1,1.86l7.57,14.94-10.21,1.55-7.15-15-1.3.19,2.4,15.72-9.87,1.51L394.91,155l18.71-2.85q3.47-.53,5.33,1a6.73,6.73,0,0,1,2.31,4.42Zm-18.65-18.26,2.59,17,4.83-.73c.64-.1.9-.49.8-1.17l-2.28-15c-.11-.68-.48-1-1.11-.88Z" transform="translate(-193.18 -77.94)"/><path class="cls-4" d="M450.53,197l-10.41,1.58-1.91-12.52-15.07-35.37,10.21-1.55,8,22.59.95-23.95,10.2-1.56-3.85,38.26Z" transform="translate(-193.18 -77.94)"/><path class="cls-4" d="M324,127c-.09.79-1.51,11.66-10.87,16.82a21.61,21.61,0,0,1-11.52,2.5,17.52,17.52,0,0,1-8.8-2.37c-7-4.41-7.64-13.65-7.74-15.06,0-.81-.59-11.66,8-18.62a22.14,22.14,0,0,1,13.33-4.76c2.18,0,6.45-.1,10.39,2.5C325.29,113.63,324,126.34,324,127Z" transform="translate(-193.18 -77.94)"/></svg>