<svg id="Слой_1" data-name="Слой 1" xmlns="http://www.w3.org/2000/svg" viewBox="0 0 510.24 595.28"><title>ruble</title><path d="M78.9,470.65c-11.59,0-22.17.14-32.75,0C25.65,470.29,8,455.12,5,435.48c-3.24-21.36,8.88-43.16,28.66-48.61,9.11-2.51,19.14-1.78,28.77-2.29,5.15-.27,10.33,0,16,0V349.15c-11.26,0-22,0-32.82,0-22.07-.1-40-17.74-40.88-40.22C3.77,285,20,265,42.37,263.37c9.43-.71,18.94-.23,28.42-.28,2.42,0,4.83,0,8.09,0,0-3.2,0-5.61,0-8q0-103.58,0-207.16c0-23.18,10.49-38.09,30.72-43.42a29.07,29.07,0,0,1,7.33-.9c73.57,0,147.15-.51,220.71.21,40.94.4,76.79,15.83,107.47,42.69C475.46,73,495,106.42,501.57,146.17c10.1,61-7.43,113.77-52.29,156.46-33.26,31.65-73.62,46.59-119.61,46.49-52.58-.12-105.17,0-157.75,0h-6.51v35.36h8.75q81.58,0,163.17,0c22.13,0,39.09,15.81,42.59,39.27,2.75,18.46-10.72,39.31-29.51,44.84a57.79,57.79,0,0,1-16,1.93q-79.89.2-159.78.07h-9.71c0,2.91,0,5.3,0,7.68,0,24.6.07,49.2-.06,73.8-.12,21.37-18.94,39-42.82,40.32-20.77,1.16-41.84-16.18-42.7-36.91-1-24.55-.37-49.18-.44-73.77C78.89,478.42,78.9,475.07,78.9,470.65Zm86.36-208.11c1.85.19,3.37.48,4.89.49q80.2,0,160.4,0A105,105,0,0,0,370,255.46c38.63-15.58,60.23-54.64,52.23-94.72-8.33-41.72-44.55-71.46-87.84-71.62-54.14-.2-108.29-.07-162.44-.05-2.17,0-4.35.22-6.74.35Z"/></svg>