<svg id="Слой_1" data-name="Слой 1" xmlns="http://www.w3.org/2000/svg" viewBox="0 0 539.6 469.78"><path d="M191.6,436.6c17.42,11,29.43,23,27.17,41.49-1.19,9.68-5.43,20.39-11.69,27.75C193.27,522.09,167.64,522,151.9,508c-11.35-10.11-15.43-22.78-13.51-37.4s11.89-24.17,25.38-32.65c-4.23-1.74-6.23-2.84-8.38-3.4-15-3.84-21-14.65-15.2-28.91,3.64-8.94,9-17.2,12.4-26.22,2.17-5.78,4-12.79,2.83-18.57C138,277.55,119.92,194.4,102.19,111.19c-1.38-6.45-4-9.42-11.09-9.25-18,.41-36,.21-54.08.11C21.93,102,13,94.43,13,82c0-12,9.44-20.44,23.82-20.56,24.27-.19,48.54-.09,72.81-.05,17.47,0,24.39,5.81,28.12,22.76,1,4.37,16.53,82.5,17,85.12,1.94,10.26,2.72,8.77,21.37,8.78q181.49.1,363,0c12.78,0,13.41,4.36,13.44,26.8.07,49.58,0,26.2-.07,75.78,0,23-5.48,28-28.37,30.57-47.83,5.32-95.56,11.42-143.35,17-46,5.39-92.14,10.55-138.21,15.83-13.07,1.49-26.19,2.73-39.17,4.81-2.86.46-7.36,3.88-7.49,6.14-.73,12.66-.35,25.39-.35,39.56h12.21q137.3,0,274.58,0a57.52,57.52,0,0,1,13.39,1.1,18.63,18.63,0,0,1,14.67,19.95c-.66,9.62-5.5,16.2-15.35,18.36l-12.14,2.67c18.69,11.25,30.78,25.16,27,45.52A51.38,51.38,0,0,1,496.05,508c-15,14.67-38.55,13.28-53.7-.71-11.22-10.37-16.43-23.91-12.06-37.55,3.83-11.95,13.24-22.12,20.19-33.09Z" transform="translate(-13.01 -48.57)"/><path d="M489.54,159.35v10.41c-.07.46-.18.92-.21,1.39a108.45,108.45,0,0,1-4.24,25.23Q471.46,242.31,429.77,266a111.36,111.36,0,0,1-43.84,13.87c-2.38.25-4.77.45-7.16.68H368.35c-.42-.07-.84-.16-1.27-.2-4-.43-8.1-.65-12.1-1.3a113.83,113.83,0,0,1-59.57-28.83,115.31,115.31,0,0,1-35.2-110c5.9-27.4,20.07-49.81,42.1-67.09a115.94,115.94,0,0,1,108.9-18.24c27.07,9.48,47.93,26.65,62.55,51.32a112.36,112.36,0,0,1,15.1,46C489.11,154.57,489.31,157,489.54,159.35ZM363.2,166.62c-3.15,0-6.3,0-9.46,0a1.34,1.34,0,0,0-1.46.84q-11.36,23.12-22.77,46.21a1.25,1.25,0,0,0,.17,1.57q11.94,14.37,23.86,28.77a2.47,2.47,0,0,0,1.35.8,122.22,122.22,0,0,0,19,2.48,104.47,104.47,0,0,0,34.87-3.7,2.46,2.46,0,0,0,1.63-1.34q9.58-18.72,19.24-37.41a1.51,1.51,0,0,0-.2-1.95q-15.47-19.29-30.88-38.62a1.94,1.94,0,0,0-2.18-.81A180.63,180.63,0,0,1,363.2,166.62Zm-36.6-41.14h-1.14q-19.51.22-39,.43a1.63,1.63,0,0,0-1.56,1A159.07,159.07,0,0,0,269.2,163.1a4.38,4.38,0,0,0,.1,2.86,132.66,132.66,0,0,0,25.24,44.16,2.37,2.37,0,0,0,2,.91q12.26,0,24.5,0a1.92,1.92,0,0,0,2-1.28q10.74-21.91,21.54-43.79c.19-.37.34-.76.45-1-1.16-1.37-2.3-2.58-3.28-3.91a42.41,42.41,0,0,1-2.74-4.27,114.89,114.89,0,0,1-8.34-19C329.29,133.72,328,129.63,326.6,125.48Zm149.61,13.66c-1.51.17-2.15-.63-2.83-1.49Q461.69,122.83,450,108a1.51,1.51,0,0,0-1.88-.62c-10,2.78-19.93,5.63-30,8.18-2.8.71-3.84,1.82-4.25,4.77a203.28,203.28,0,0,1-9.27,38.18,1.93,1.93,0,0,0,.25,1.55q15.28,19.2,30.63,38.37A1.15,1.15,0,0,0,437,199c9-2.82,18-5.59,27-8.41a2.05,2.05,0,0,0,1.11-1c.72-1.62,1.35-3.28,2-4.94a159,159,0,0,0,8.32-35.47C475.68,145.87,475.89,142.61,476.21,139.14ZM287.82,118.38h1.05c11.68-.15,23.35-.28,35-.47a2.44,2.44,0,0,0,1.48-.72c6-5.73,11.89-11.64,18.08-17.19,5.81-5.21,12.05-9.93,19.31-13.06a1.18,1.18,0,0,0,.47-1c-.72-7.45-1.49-14.9-2.21-22.36-.07-.76-.39-1-1.09-1.05-7.65-.73-15.3-1.49-22.95-2.22a3.6,3.6,0,0,0-1.49.21,110.13,110.13,0,0,0-46.74,32.69,2.87,2.87,0,0,0-.61,1.67c-.14,6.86-.22,13.72-.32,20.59C287.81,116.39,287.82,117.29,287.82,118.38Zm160.83-19c-.25-5.62-.47-11.09-.75-16.56a1.83,1.83,0,0,0-.7-1.13c-2.83-2.33-5.61-4.73-8.57-6.89a109.92,109.92,0,0,0-50.82-20.26,2.33,2.33,0,0,0-1.14.12q-8.76,3.51-17.51,7.08a1.25,1.25,0,0,0-.61,1c.75,7.88,1.57,15.76,2.32,23.65A1.5,1.5,0,0,0,372,87.85c4,1.74,8.14,3.39,12.09,5.34a179.88,179.88,0,0,1,25.77,16,2.14,2.14,0,0,0,2.05.34c7.69-2.15,15.4-4.25,23.11-6.37Zm-17,159.69c-.47-.33-.68-.5-.91-.64-4.82-2.91-9.65-5.81-14.45-8.75a2.3,2.3,0,0,0-2.1-.24,100.48,100.48,0,0,1-22.34,4.28,138,138,0,0,1-31.13-1.18,2.65,2.65,0,0,0-1.78.48c-5.59,4.24-11.14,8.53-16.69,12.81-1.49,1.14-3,2.3-4.72,3.66C370.6,280.16,401.76,276.61,431.64,259.11ZM287.85,235c0-.66.06-1,.06-1.26-.05-6.66-.12-13.33-.14-20a3.7,3.7,0,0,0-.88-2.46,130.14,130.14,0,0,1-23.65-44.73,6.07,6.07,0,0,0-.31-.69l-.29.12C263.17,191.7,271.52,214.59,287.85,235Zm184.9-21.44c10.93-22.13,14.43-45.25,9.6-69.49-.4,3.28-.69,6.58-1.08,9.86A156.33,156.33,0,0,1,470.76,195a3,3,0,0,0-.32,1.46C471.19,202.17,472,207.87,472.75,213.56Z" transform="translate(-13.01 -48.57)"/></svg>