<svg id="Слой_1" data-name="Слой 1" xmlns="http://www.w3.org/2000/svg" viewBox="0 0 539.6 457.01"><path d="M191.6,436.6c17.42,11,29.43,23,27.17,41.49-1.19,9.68-5.43,20.39-11.69,27.75C193.27,522.09,167.64,522,151.9,508c-11.35-10.11-15.43-22.78-13.51-37.4s11.89-24.17,25.38-32.65c-4.23-1.74-6.23-2.84-8.38-3.4-15-3.84-21-14.65-15.2-28.91,3.64-8.94,9-17.2,12.4-26.22,2.17-5.78,4-12.79,2.83-18.57C138,277.55,119.92,194.4,102.19,111.19c-1.38-6.45-4-9.42-11.09-9.25-18,.41-36,.21-54.08.11C21.93,102,13,94.43,13,82c0-12,9.44-20.44,23.82-20.56,24.27-.19,48.54-.09,72.81-.05,17.47,0,24.39,5.81,28.12,22.76,1,4.37,16.53,82.5,17,85.12,1.94,10.26,2.72,8.77,21.37,8.78q181.49.1,363,0c12.78,0,13.41,4.36,13.44,26.8.07,49.58,0,26.2-.07,75.78,0,23-5.48,28-28.37,30.57-47.83,5.32-95.56,11.42-143.35,17-46,5.39-92.14,10.55-138.21,15.83-13.07,1.49-26.19,2.73-39.17,4.81-2.86.46-7.36,3.88-7.49,6.14-.73,12.66-.35,25.39-.35,39.56h12.21q137.3,0,274.58,0a57.52,57.52,0,0,1,13.39,1.1,18.63,18.63,0,0,1,14.67,19.95c-.66,9.62-5.5,16.2-15.35,18.36l-12.14,2.67c18.69,11.25,30.78,25.16,27,45.52A51.38,51.38,0,0,1,496.05,508c-15,14.67-38.55,13.28-53.7-.71-11.22-10.37-16.43-23.91-12.06-37.55,3.83-11.95,13.24-22.12,20.19-33.09Z" transform="translate(-13.01 -61.35)"/></svg>